<svg viewBox="0 0 720 250" xmlns="http://www.w3.org/2000/svg" role="img">
<title>Weekday entity manifold across depths in Llama-3.2-1B</title>
<desc>Seven day-of-week centroids form a ring in calendar order at layers 0, 4, 8, 12.</desc>
<text x="95" y="34" text-anchor="middle" font-family="var(--font-sans)" font-size="13" fill="var(--color-text-primary)">layer 0</text>
<text x="95" y="50" text-anchor="middle" font-family="var(--font-sans)" font-size="11" fill="var(--color-text-secondary)">rel 0.00 · cyclic-NN 1.00</text>
<polyline points="90.9,88.9 60.4,106.5 61.1,117.7 62.2,155.5 98.7,170.4 136.7,158.9 155.0,98.1 90.9,88.9" fill="none" stroke="var(--color-border-secondary)" stroke-width="1.5"/>
<circle cx="90.9" cy="88.9" r="8" fill="#e24b4a" stroke="var(--color-background-primary)" stroke-width="1.5"/>
<text x="90.9" y="92.4" text-anchor="middle" font-family="var(--font-sans)" font-size="8.5" fill="#fff">Mo</text>
<circle cx="60.4" cy="106.5" r="8" fill="#d85a30" stroke="var(--color-background-primary)" stroke-width="1.5"/>
<text x="60.4" y="110.0" text-anchor="middle" font-family="var(--font-sans)" font-size="8.5" fill="#fff">Tu</text>
<circle cx="61.1" cy="117.7" r="8" fill="#ba7517" stroke="var(--color-background-primary)" stroke-width="1.5"/>
<text x="61.1" y="121.2" text-anchor="middle" font-family="var(--font-sans)" font-size="8.5" fill="#fff">We</text>
<circle cx="62.2" cy="155.5" r="8" fill="#639922" stroke="var(--color-background-primary)" stroke-width="1.5"/>
<text x="62.2" y="159.0" text-anchor="middle" font-family="var(--font-sans)" font-size="8.5" fill="#fff">Th</text>
<circle cx="98.7" cy="170.4" r="8" fill="#1d9e75" stroke="var(--color-background-primary)" stroke-width="1.5"/>
<text x="98.7" y="173.9" text-anchor="middle" font-family="var(--font-sans)" font-size="8.5" fill="#fff">Fr</text>
<circle cx="136.7" cy="158.9" r="8" fill="#378add" stroke="var(--color-background-primary)" stroke-width="1.5"/>
<text x="136.7" y="162.4" text-anchor="middle" font-family="var(--font-sans)" font-size="8.5" fill="#fff">Sa</text>
<circle cx="155.0" cy="98.1" r="8" fill="#7f77dd" stroke="var(--color-background-primary)" stroke-width="1.5"/>
<text x="155.0" y="101.6" text-anchor="middle" font-family="var(--font-sans)" font-size="8.5" fill="#fff">Su</text>
<text x="271" y="34" text-anchor="middle" font-family="var(--font-sans)" font-size="13" fill="var(--color-text-primary)">layer 4</text>
<text x="271" y="50" text-anchor="middle" font-family="var(--font-sans)" font-size="11" fill="var(--color-text-secondary)">rel 0.25 · cyclic-NN 1.00</text>
<polyline points="262.4,74.5 237.5,109.6 235.3,131.2 237.8,155.8 272.4,164.5 320.7,163.2 331.0,97.2 262.4,74.5" fill="none" stroke="var(--color-border-secondary)" stroke-width="1.5"/>
<circle cx="262.4" cy="74.5" r="8" fill="#e24b4a" stroke="var(--color-background-primary)" stroke-width="1.5"/>
<text x="262.4" y="78.0" text-anchor="middle" font-family="var(--font-sans)" font-size="8.5" fill="#fff">Mo</text>
<circle cx="237.5" cy="109.6" r="8" fill="#d85a30" stroke="var(--color-background-primary)" stroke-width="1.5"/>
<text x="237.5" y="113.1" text-anchor="middle" font-family="var(--font-sans)" font-size="8.5" fill="#fff">Tu</text>
<circle cx="235.3" cy="131.2" r="8" fill="#ba7517" stroke="var(--color-background-primary)" stroke-width="1.5"/>
<text x="235.3" y="134.7" text-anchor="middle" font-family="var(--font-sans)" font-size="8.5" fill="#fff">We</text>
<circle cx="237.8" cy="155.8" r="8" fill="#639922" stroke="var(--color-background-primary)" stroke-width="1.5"/>
<text x="237.8" y="159.3" text-anchor="middle" font-family="var(--font-sans)" font-size="8.5" fill="#fff">Th</text>
<circle cx="272.4" cy="164.5" r="8" fill="#1d9e75" stroke="var(--color-background-primary)" stroke-width="1.5"/>
<text x="272.4" y="168.0" text-anchor="middle" font-family="var(--font-sans)" font-size="8.5" fill="#fff">Fr</text>
<circle cx="320.7" cy="163.2" r="8" fill="#378add" stroke="var(--color-background-primary)" stroke-width="1.5"/>
<text x="320.7" y="166.7" text-anchor="middle" font-family="var(--font-sans)" font-size="8.5" fill="#fff">Sa</text>
<circle cx="331.0" cy="97.2" r="8" fill="#7f77dd" stroke="var(--color-background-primary)" stroke-width="1.5"/>
<text x="331.0" y="100.7" text-anchor="middle" font-family="var(--font-sans)" font-size="8.5" fill="#fff">Su</text>
<text x="447" y="34" text-anchor="middle" font-family="var(--font-sans)" font-size="13" fill="var(--color-text-primary)">layer 8</text>
<text x="447" y="50" text-anchor="middle" font-family="var(--font-sans)" font-size="11" fill="var(--color-text-secondary)">rel 0.50 · cyclic-NN 1.00</text>
<polyline points="411.5,176.8 464.5,165.4 482.5,138.3 495.7,125.0 467.9,88.5 419.9,80.8 387.0,121.2 411.5,176.8" fill="none" stroke="var(--color-border-secondary)" stroke-width="1.5"/>
<circle cx="411.5" cy="176.8" r="8" fill="#e24b4a" stroke="var(--color-background-primary)" stroke-width="1.5"/>
<text x="411.5" y="180.3" text-anchor="middle" font-family="var(--font-sans)" font-size="8.5" fill="#fff">Mo</text>
<circle cx="464.5" cy="165.4" r="8" fill="#d85a30" stroke="var(--color-background-primary)" stroke-width="1.5"/>
<text x="464.5" y="168.9" text-anchor="middle" font-family="var(--font-sans)" font-size="8.5" fill="#fff">Tu</text>
<circle cx="482.5" cy="138.3" r="8" fill="#ba7517" stroke="var(--color-background-primary)" stroke-width="1.5"/>
<text x="482.5" y="141.8" text-anchor="middle" font-family="var(--font-sans)" font-size="8.5" fill="#fff">We</text>
<circle cx="495.7" cy="125.0" r="8" fill="#639922" stroke="var(--color-background-primary)" stroke-width="1.5"/>
<text x="495.7" y="128.5" text-anchor="middle" font-family="var(--font-sans)" font-size="8.5" fill="#fff">Th</text>
<circle cx="467.9" cy="88.5" r="8" fill="#1d9e75" stroke="var(--color-background-primary)" stroke-width="1.5"/>
<text x="467.9" y="92.0" text-anchor="middle" font-family="var(--font-sans)" font-size="8.5" fill="#fff">Fr</text>
<circle cx="419.9" cy="80.8" r="8" fill="#378add" stroke="var(--color-background-primary)" stroke-width="1.5"/>
<text x="419.9" y="84.3" text-anchor="middle" font-family="var(--font-sans)" font-size="8.5" fill="#fff">Sa</text>
<circle cx="387.0" cy="121.2" r="8" fill="#7f77dd" stroke="var(--color-background-primary)" stroke-width="1.5"/>
<text x="387.0" y="124.7" text-anchor="middle" font-family="var(--font-sans)" font-size="8.5" fill="#fff">Su</text>
<text x="623" y="34" text-anchor="middle" font-family="var(--font-sans)" font-size="13" fill="var(--color-text-primary)">layer 12</text>
<text x="623" y="50" text-anchor="middle" font-family="var(--font-sans)" font-size="11" fill="var(--color-text-secondary)">rel 0.75 · cyclic-NN 1.00</text>
<polyline points="563.0,144.2 605.8,171.0 639.9,172.5 670.9,154.5 671.1,92.8 637.3,75.7 573.0,85.4 563.0,144.2" fill="none" stroke="var(--color-border-secondary)" stroke-width="1.5"/>
<circle cx="563.0" cy="144.2" r="8" fill="#e24b4a" stroke="var(--color-background-primary)" stroke-width="1.5"/>
<text x="563.0" y="147.7" text-anchor="middle" font-family="var(--font-sans)" font-size="8.5" fill="#fff">Mo</text>
<circle cx="605.8" cy="171.0" r="8" fill="#d85a30" stroke="var(--color-background-primary)" stroke-width="1.5"/>
<text x="605.8" y="174.5" text-anchor="middle" font-family="var(--font-sans)" font-size="8.5" fill="#fff">Tu</text>
<circle cx="639.9" cy="172.5" r="8" fill="#ba7517" stroke="var(--color-background-primary)" stroke-width="1.5"/>
<text x="639.9" y="176.0" text-anchor="middle" font-family="var(--font-sans)" font-size="8.5" fill="#fff">We</text>
<circle cx="670.9" cy="154.5" r="8" fill="#639922" stroke="var(--color-background-primary)" stroke-width="1.5"/>
<text x="670.9" y="158.0" text-anchor="middle" font-family="var(--font-sans)" font-size="8.5" fill="#fff">Th</text>
<circle cx="671.1" cy="92.8" r="8" fill="#1d9e75" stroke="var(--color-background-primary)" stroke-width="1.5"/>
<text x="671.1" y="96.3" text-anchor="middle" font-family="var(--font-sans)" font-size="8.5" fill="#fff">Fr</text>
<circle cx="637.3" cy="75.7" r="8" fill="#378add" stroke="var(--color-background-primary)" stroke-width="1.5"/>
<text x="637.3" y="79.2" text-anchor="middle" font-family="var(--font-sans)" font-size="8.5" fill="#fff">Sa</text>
<circle cx="573.0" cy="85.4" r="8" fill="#7f77dd" stroke="var(--color-background-primary)" stroke-width="1.5"/>
<text x="573.0" y="88.9" text-anchor="middle" font-family="var(--font-sans)" font-size="8.5" fill="#fff">Su</text>
</svg>
